<svg width="200" height="200" viewBox="0 0 200 200" xmlns="http://www.w3.org/2000/svg">

  <!-- Background -->
  <circle cx="100" cy="100" r="95" fill="#080c80"/>

  <!-- Gear (shifted upward) -->
  <g fill="#ffffff" transform="translate(0,-10)">
    <path d="
      M100,50
      L108,50 L110,60 L120,64 L128,58 L136,66 L130,74 L134,84 L144,86
      L144,96 L134,98 L130,108 L136,116 L128,124 L120,118 L110,122 L108,132
      L100,132 L92,132 L90,122 L80,118 L72,124 L64,116 L70,108 L66,98
      L56,96 L56,86 L66,84 L70,74 L64,66 L72,58 L80,64 L90,60 L92,50 Z
    "/>

    <circle cx="100" cy="91" r="14" fill="#080c80"/>
  </g>

  <!-- Arrow -->
  <line x1="48" y1="150" x2="118" y2="150"
        stroke="#ffffff" stroke-width="10" stroke-linecap="round"/>

  <!-- Wider (thicker) arrowhead: same x, larger spread -->
  <polygon points="118,135 158,150 118,165" fill="#ffffff"/>

</svg>
